<svg width="41" height="40" viewBox="0 0 41 40" fill="none" xmlns="http://www.w3.org/2000/svg">
<circle cx="20.5" cy="20" r="20" fill="white"/>
<path d="M30.3055 18.0415H29.5V18H20.5V22H26.1515C25.327 24.3285 23.1115 26 20.5 26C17.1865 26 14.5 23.3135 14.5 20C14.5 16.6865 17.1865 14 20.5 14C22.0295 14 23.421 14.577 24.4805 15.5195L27.309 12.691C25.523 11.0265 23.134 10 20.5 10C14.9775 10 10.5 14.4775 10.5 20C10.5 25.5225 14.9775 30 20.5 30C26.0225 30 30.5 25.5225 30.5 20C30.5 19.3295 30.431 18.675 30.3055 18.0415Z" fill="#FFC107"/>
<path d="M11.6528 15.3455L14.9383 17.755C15.8273 15.554 17.9803 14 20.4998 14C22.0293 14 23.4208 14.577 24.4803 15.5195L27.3088 12.691C25.5228 11.0265 23.1338 10 20.4998 10C16.6588 10 13.3278 12.1685 11.6528 15.3455Z" fill="#FF3D00"/>
<path d="M20.5002 30C23.0832 30 25.4302 29.0115 27.2047 27.404L24.1097 24.785C23.0719 25.5742 21.8039 26.001 20.5002 26C17.8992 26 15.6907 24.3415 14.8587 22.027L11.5977 24.5395C13.2527 27.778 16.6137 30 20.5002 30Z" fill="#4CAF50"/>
<path d="M30.3055 18.0415H29.5V18H20.5V22H26.1515C25.7571 23.1082 25.0467 24.0766 24.108 24.7855L24.1095 24.7845L27.2045 27.4035C26.9855 27.6025 30.5 25 30.5 20C30.5 19.3295 30.431 18.675 30.3055 18.0415Z" fill="#1976D2"/>
</svg>
