<svg width="301" height="300" viewBox="0 0 301 300" fill="none" xmlns="http://www.w3.org/2000/svg">
<path d="M243.98 206.82C248.78 216.12 247.88 228.3 241.64 236.58C235.4 244.86 224 248.7 214.34 245.52C207.2 243.18 201.5 237.6 195.26 233.28C188.72 228.78 181.52 225.54 174.8 221.34C168.08 217.14 161.78 211.68 158.54 204.24C155.3 196.8 156.02 187.14 161.78 181.68C165.74 177.9 171.44 176.64 176.84 177C190.1 177.96 203.12 185.52 215.9 189.06C226.52 192 238.64 195.78 243.98 206.82Z" fill="white"/>
<path d="M221.36 247.02C218.9 247.02 216.5 246.66 214.22 245.88C208.94 244.14 204.5 240.72 200.12 237.36C198.44 236.1 196.76 234.78 195.02 233.58C191.3 231.06 187.46 228.78 183.44 226.74C180.5 225.12 177.44 223.44 174.56 221.64C166.28 216.48 160.94 210.78 158.12 204.36C155.12 197.34 155.24 187.2 161.48 181.26C165.14 177.78 170.78 176.04 176.9 176.46C185.36 177.06 193.7 180.36 201.86 183.54C206.54 185.34 211.34 187.26 216.02 188.58C228.02 191.94 239.18 195.78 244.34 206.58C249.2 216.06 248.24 228.48 241.94 236.82C237.08 243.18 229.46 246.96 221.36 247.02ZM174.98 177.3C169.82 177.3 165.2 178.92 162.08 181.92C156.2 187.56 156.02 197.28 158.96 204C161.66 210.3 166.94 215.76 175.04 220.86C177.92 222.66 180.98 224.34 183.86 225.96C187.88 228.06 191.72 230.34 195.5 232.86C197.24 234.06 198.98 235.38 200.6 236.7C204.86 240 209.3 243.42 214.46 245.1C223.82 248.16 235.1 244.5 241.22 236.34C247.28 228.3 248.24 216.24 243.5 207.06C238.46 196.62 227.48 192.78 215.72 189.54C210.98 188.22 206.12 186.3 201.44 184.5C193.4 181.38 185.06 178.08 176.78 177.48C176.24 177.36 175.58 177.3 174.98 177.3Z" fill="#111111"/>
<path d="M156.32 228.66C160.7 240.84 163.94 253.62 170.72 264.54C173.36 268.8 176.72 272.88 181.28 274.92C185.84 276.96 191.66 276.3 194.78 272.34C198.5 267.66 196.94 260.4 193.58 255.42C190.22 250.44 185.3 246.78 181.82 241.92C177.5 235.86 175.58 228.3 174.14 220.86C172.7 213.42 171.56 205.86 168.5 198.96C165.44 192.06 160.04 185.88 152.9 184.14C143.12 181.74 134 188.94 139.1 198.9C144.38 209.4 152.12 217.08 156.32 228.66Z" fill="white"/>
<path d="M186.5 276.48C184.64 276.48 182.78 276.12 181.04 275.34C177.08 273.6 173.66 270.24 170.3 264.84C165.2 256.62 162.08 247.14 159.02 238.08C158 235.08 156.98 231.96 155.9 228.9C153.44 222.12 149.66 216.54 146.06 211.2C143.36 207.36 140.84 203.34 138.68 199.2C136.52 195 136.76 190.8 139.22 187.68C142.16 184.02 147.56 182.46 153.02 183.84C159.56 185.46 165.32 190.92 168.92 198.9C171.56 204.78 172.76 211.26 173.96 217.5C174.2 218.64 174.38 219.72 174.62 220.86C176.06 228.12 177.98 235.74 182.24 241.74C183.98 244.02 185.84 246.18 187.94 248.22C190.16 250.38 192.2 252.78 194.06 255.3C197.42 260.16 199.22 267.72 195.26 272.7C192.98 275.34 189.74 276.48 186.5 276.48ZM149.12 184.2C145.34 184.2 141.92 185.64 139.88 188.16C137.6 191.04 137.42 194.76 139.46 198.72C141.68 202.86 144.08 206.82 146.78 210.6C150.44 216 154.22 221.64 156.74 228.48C157.82 231.54 158.9 234.66 159.86 237.66C162.86 246.72 165.98 256.14 171.02 264.24C174.32 269.52 177.56 272.76 181.34 274.44C185.42 276.24 191.18 275.94 194.3 271.98C197.96 267.36 196.22 260.28 193.04 255.6C191.24 253.14 189.26 250.8 187.04 248.7C184.94 246.66 183.02 244.44 181.28 242.1C176.9 235.98 174.98 228.3 173.48 220.86C173.24 219.72 173.06 218.64 172.82 217.5C171.62 211.26 170.42 204.84 167.84 199.08C164.42 191.34 158.84 186.06 152.54 184.5C151.52 184.32 150.32 184.2 149.12 184.2Z" fill="#111111"/>
<path d="M222.92 235.5C219.62 235.5 216.32 234.78 213.26 233.4C207.62 230.88 202.82 226.68 198.2 222.6L195.92 220.62C190.52 215.94 184.58 211.44 177.62 210.18C177.44 210.12 177.38 210 177.38 209.82C177.44 209.64 177.56 209.58 177.74 209.58C184.82 210.9 190.82 215.46 196.34 220.14C197.12 220.8 197.84 221.46 198.62 222.12C203.24 226.14 207.98 230.34 213.56 232.8C220.76 236.04 228.56 235.44 233.42 231.36C233.54 231.24 233.72 231.3 233.84 231.42C233.9 231.54 233.9 231.72 233.78 231.78C230.9 234.3 227.06 235.5 222.92 235.5Z" fill="#111111"/>
<path d="M216.62 220.92C214.58 220.92 212.6 220.68 210.62 220.14C204.38 218.4 199.1 214.26 195.92 208.62C195.86 208.5 195.86 208.32 196.04 208.2C196.16 208.14 196.34 208.2 196.46 208.32C199.52 213.84 204.68 217.86 210.8 219.6C216.86 221.22 223.28 220.26 228.56 217.02C228.68 216.96 228.86 217.02 228.98 217.14C229.04 217.26 228.98 217.44 228.86 217.5C225.14 219.72 220.94 220.92 216.62 220.92Z" fill="#111111"/>
<path d="M16.5198 136.08C9.73976 129.24 8.17976 118.02 12.9198 109.68C17.6598 101.34 28.2798 96.54 37.8798 98.4C34.5798 86.22 38.8398 72.36 48.4998 63.9C58.1598 55.44 72.8598 52.74 85.0998 57.18C85.0398 45.06 94.5798 33.48 106.82 30.78C119.06 28.08 132.86 34.5 138.26 45.42C144.26 33.9 158.9 27.24 171.92 30.06C184.94 32.88 195.2 45 195.5 57.96C207.26 51.42 222.02 48.12 234.56 53.22C247.1 58.32 255.2 73.92 248.6 85.44C259.04 83.64 270.44 89.04 275.36 98.16C280.28 107.28 278.42 119.34 270.92 126.6C280.82 130.38 288.38 139.32 290.3 149.46C292.22 159.6 288.38 170.52 280.46 177.42C284.36 186.84 283.82 197.46 279.08 206.46C274.28 215.34 265.4 222 255.32 224.22C228.32 230.22 203.36 205.62 175.64 205.5C149.78 205.44 126.56 226.74 101 223.02C86.3598 220.86 73.6998 210.06 68.6598 196.56C63.6198 183.06 66.0198 167.46 73.8798 155.34C72.0198 158.22 58.2798 148.98 56.8398 147.66C53.9598 144.96 51.0198 136.68 47.4198 136.5C44.7198 136.38 39.7398 142.26 36.1998 142.92C29.3598 144 21.2598 140.82 16.5198 136.08Z" fill="#855AFF"/>
<path d="M69.8598 97.68C69.4998 97.68 69.2598 97.44 69.2598 97.08C69.1398 90.96 71.7798 85.14 76.3398 81.12C80.7198 77.34 86.5398 75.78 92.1798 76.74C93.3198 68.46 98.5998 60.66 105.8 56.82C113.42 52.92 122.48 53.16 129.92 57.42C130.22 57.54 130.34 57.9 130.22 58.2C130.1 58.5 129.74 58.62 129.44 58.5C129.38 58.5 129.38 58.44 129.32 58.44C122.3 54.36 113.66 54.12 106.4 57.84C99.3198 61.56 94.2198 69.24 93.3198 77.46C93.2598 77.76 92.9598 78 92.6598 78H92.5998C87.0798 76.92 81.3798 78.36 77.1198 82.02C72.7998 85.86 70.3998 91.32 70.4598 97.08C70.4598 97.38 70.2198 97.62 69.8598 97.68Z" fill="#111111"/>
<path d="M163.04 82.98C162.86 82.98 162.74 82.92 162.62 82.8C162.38 82.56 162.38 82.2 162.62 81.96C167.48 76.8 170.48 70.2 171.08 63.18C171.38 59.76 171.02 57 170.06 54.66C168.86 51.84 166.7 49.8 164.24 49.2C163.94 49.14 163.7 48.84 163.76 48.48C163.82 48.18 164.12 47.94 164.48 48C164.54 48 164.54 48 164.6 48C167.42 48.72 169.88 51 171.2 54.18C172.28 56.7 172.64 59.7 172.34 63.3C171.68 70.62 168.56 77.46 163.52 82.8C163.4 82.92 163.22 82.98 163.04 82.98Z" fill="#111111"/>
<path d="M244.04 115.38C243.68 115.38 243.44 115.14 243.44 114.78C243.44 105.96 235.7 97.7999 227.18 97.6799C226.94 97.6799 226.76 97.5599 226.64 97.3799C226.52 97.1999 226.52 96.9599 226.64 96.7799C229.88 91.4399 229.34 83.8199 225.38 79.0799C221.42 74.3399 214.28 72.5999 208.76 75.1199C208.46 75.2399 208.1 75.1199 207.98 74.8199C207.86 74.5199 207.98 74.1599 208.28 74.0399C214.58 71.3399 221.9 73.0799 226.34 78.3599C230.48 83.5799 231.2 90.6599 228.2 96.5999C236.96 97.3199 244.64 105.72 244.64 114.9C244.64 115.08 244.4 115.38 244.04 115.38Z" fill="#111111"/>
<path d="M155.06 184.26C151.46 184.26 147.92 183.42 144.74 181.8C144.44 181.62 144.32 181.26 144.5 180.96C144.68 180.66 144.98 180.6 145.28 180.72C151.4 183.78 158.6 183.78 164.72 180.78C170.9 177.54 175.28 171.66 176.72 164.82C176.78 164.52 177.08 164.28 177.44 164.34C177.56 164.34 177.74 164.46 177.8 164.58C182.18 170.34 189.14 173.52 196.4 173.16C203.66 172.56 210.14 168.48 213.8 162.18C213.92 162 214.1 161.88 214.28 161.88C214.46 161.88 214.7 162 214.82 162.12C222.62 173.52 238.28 177.9 250.52 172.14C262.76 166.38 269.9 151.2 266.78 137.64C266.72 137.28 266.9 136.98 267.26 136.92C267.62 136.86 267.92 137.04 267.98 137.4C271.28 151.5 263.84 167.28 251.06 173.28C238.58 179.16 222.68 174.9 214.4 163.62C207.86 174.3 193.88 177.66 183.14 171.12C181.04 169.86 179.18 168.24 177.62 166.38C175.88 173.1 171.44 178.74 165.32 181.92C162.14 183.48 158.66 184.32 155.06 184.26Z" fill="#111111"/>
<path d="M107.54 208.2C97.9396 208.2 89.6596 204.78 84.6196 198.48C84.3796 198.24 84.4396 197.82 84.6796 197.64C84.9196 197.4 85.3396 197.46 85.5196 197.7C92.5396 206.46 105.02 207.96 114.38 206.4C121.4 205.26 128.18 202.62 134.72 200.1C138.02 198.84 141.38 197.52 144.8 196.38C165.26 189.72 187.22 189.36 207.86 195.3C211.46 196.38 215.06 197.64 218.6 198.84C222.8 200.34 227.12 201.84 231.5 202.98C240.92 205.5 248.84 205.74 255.62 203.82C255.92 203.7 256.28 203.88 256.34 204.24C256.46 204.54 256.28 204.9 255.92 204.96C248.9 207 240.8 206.7 231.14 204.12C226.76 202.92 222.38 201.42 218.18 199.92C214.7 198.72 211.1 197.46 207.5 196.38C187.1 190.5 165.32 190.86 145.16 197.46C141.8 198.6 138.44 199.86 135.14 201.12C128.54 203.7 121.64 206.34 114.56 207.48C112.28 207.96 109.88 208.2 107.54 208.2Z" fill="#111111"/>
<path d="M266.36 199.02C266 199.02 265.76 198.72 265.76 198.42C265.76 198.18 265.94 197.94 266.18 197.88C270.14 196.62 273.5 193.92 275.6 190.38C275.72 190.08 276.08 189.9 276.38 190.08C276.68 190.2 276.86 190.56 276.68 190.86C276.68 190.92 276.62 190.98 276.62 190.98C274.34 194.82 270.74 197.64 266.48 199.02C266.48 198.96 266.42 199.02 266.36 199.02Z" fill="#111111"/>
<path d="M154.58 155.04H154.46C154.16 154.98 153.92 154.62 154.04 154.32C156.02 146.22 161.9 139.56 169.7 136.56C177.02 133.92 185.18 134.88 191.6 139.26C190.58 123.36 201.44 107.4 216.32 103.26C216.62 103.2 216.98 103.38 217.04 103.68C217.1 103.98 216.92 104.34 216.62 104.4C201.86 108.48 191.18 124.62 192.86 140.4C192.92 140.64 192.74 140.88 192.56 141C192.38 141.12 192.08 141.12 191.9 140.94C185.66 136.2 177.44 134.94 170.06 137.64C162.62 140.52 157.1 146.82 155.18 154.56C155.06 154.86 154.82 155.04 154.58 155.04Z" fill="#111111"/>
<path d="M97.5198 186.66C97.1598 186.66 96.9198 186.36 96.9198 186C97.1598 182.04 95.7198 178.2 92.9598 175.38C90.1998 172.68 86.4198 171.3 82.5798 171.66C82.2198 171.72 81.9798 171.48 81.9198 171.12C81.8598 170.76 82.0998 170.52 82.4598 170.46C86.6598 170.04 90.7998 171.54 93.7998 174.48C96.7998 177.54 98.4198 181.74 98.1198 186.06C98.1198 186.42 97.8198 186.66 97.5198 186.66Z" fill="#111111"/>
<path d="M116.18 182.88C112.46 182.88 108.86 181.68 105.92 179.4C104.9 178.56 104.72 177.06 105.56 176.04C106.4 175.02 107.9 174.84 108.92 175.68C111.98 178.08 116.48 178.74 120.44 177.36C124.22 176.04 127.64 172.92 129.74 168.78C131.72 164.64 132.68 160.02 132.38 155.4C132.32 154.08 133.34 152.94 134.66 152.88C135.98 152.82 137.12 153.84 137.18 155.16C137.48 160.62 136.4 166.02 134 170.94C131.36 176.16 126.98 180.12 122 181.86C120.14 182.58 118.16 182.88 116.18 182.88Z" fill="#111111"/>
<path d="M120.14 111.12C117.98 114.84 116.72 119.34 117.44 123.6C117.68 125.22 118.4 126.96 119.84 127.68C121.58 128.46 123.56 127.32 125.06 126.06C130.46 121.32 133.7 114.54 134 107.4C134.18 103.86 132.02 100.26 128.3 101.94C125.06 103.38 121.82 108.12 120.14 111.12Z" fill="#111111"/>
<path d="M61.2801 110.16C60.1401 110.82 59.0001 111.54 58.2801 112.62C57.2001 114.3 57.5001 116.58 58.1601 118.5C59.0001 120.84 60.3801 123 62.1801 124.68C63.5001 125.94 65.2401 126.96 66.9801 126.6C68.9601 126.24 70.2201 124.32 71.1801 122.52C73.0401 118.74 75.8001 110.58 73.8201 106.32C71.6601 101.88 64.2201 108.48 61.2801 110.16Z" fill="#111111"/>
<path d="M45.56 148.92H45.02C40.16 148.86 33.2 148.26 29 143.4C26.12 140.04 25.46 135.72 25.1 132C24.2 122.4 24.2 112.74 24.98 103.14C25.28 99.42 25.76 95.1 27.38 90.96C29.24 86.22 32.36 82.5 36.26 80.34C40.88 77.82 46.16 77.64 51.2 77.82C57.08 78.06 62.96 78.72 68.78 79.8C69.5 79.92 70.28 80.04 71.12 80.22C77.72 81.3 86.78 82.8 89.66 90.3C92.6 97.98 91.88 107.1 91.28 115.14C91.16 116.58 91.04 118.02 90.98 119.4C90.68 124.44 90.26 131.34 86.18 136.62C81.98 142.14 75.08 144.48 69.62 145.86C61.7 147.96 53.66 148.98 45.56 148.92ZM48.32 85.08C45.2 85.08 42.14 85.44 39.68 86.76C37.22 88.08 35.3 90.54 34.1 93.66C32.96 96.6 32.48 99.84 32.18 103.8C31.4 112.98 31.4 122.16 32.3 131.34C32.54 134.1 32.96 136.92 34.46 138.72C36.2 140.76 39.56 141.72 45.08 141.72H45.56C53.06 141.72 60.56 140.82 67.82 138.96C72.2 137.88 77.54 136.08 80.42 132.36C82.94 129.06 83.42 124.56 83.78 119.04C83.84 117.6 83.96 116.16 84.08 114.66C84.68 107.4 85.28 99.12 82.94 93C81.56 89.4 74.84 88.26 69.92 87.48C69.02 87.36 68.18 87.18 67.4 87.06C61.94 86.04 56.42 85.44 50.9 85.2C50.06 85.08 49.16 85.08 48.32 85.08Z" fill="white"/>
<path d="M45.56 149.4H45.02C40.1 149.34 32.96 148.74 28.64 143.7C25.64 140.22 24.98 135.84 24.62 132.06C23.72 122.46 23.72 112.74 24.5 103.14C24.8 99.42 25.28 95.1 26.96 90.84C28.82 86.04 32.06 82.2 36.02 79.98C40.76 77.4 46.1 77.22 51.2 77.46C57.14 77.7 63.02 78.36 68.84 79.44C69.56 79.56 70.34 79.68 71.12 79.86C77.9 81 87.08 82.5 90.08 90.18C93.08 97.98 92.36 107.16 91.7 115.2V115.32C91.58 116.76 91.46 118.14 91.4 119.52C91.1 124.62 90.62 131.58 86.48 136.98C82.16 142.62 75.2 144.96 69.68 146.34C61.82 148.44 53.72 149.4 45.56 149.4ZM48.32 78.3C44.24 78.3 40.16 78.78 36.44 80.82C32.66 82.86 29.6 86.58 27.8 91.2C26.18 95.34 25.7 99.6 25.4 103.26C24.56 112.86 24.62 122.46 25.52 132C25.88 135.66 26.48 139.86 29.3 143.16C33.38 147.9 40.22 148.5 45.02 148.5H45.56C53.66 148.5 61.64 147.48 69.5 145.5C74.9 144.12 81.68 141.84 85.82 136.44C89.78 131.22 90.2 124.44 90.56 119.46C90.62 118.14 90.74 116.7 90.86 115.26V115.2C91.52 107.22 92.18 98.16 89.3 90.54C86.54 83.34 77.6 81.84 71.06 80.76C70.22 80.64 69.44 80.46 68.72 80.34C62.96 79.26 57.08 78.6 51.2 78.36C50.24 78.36 49.28 78.3 48.32 78.3ZM45.56 142.2H45.02C39.38 142.2 35.9 141.18 34.1 139.02C32.48 137.16 32.06 134.22 31.82 131.4C30.98 122.22 30.92 112.98 31.7 103.8C32.06 99.78 32.54 96.48 33.68 93.54C34.94 90.3 37.04 87.78 39.5 86.4C42.32 84.84 45.92 84.66 48.38 84.66C49.16 84.66 50 84.66 50.9 84.72C56.48 84.96 62.06 85.62 67.52 86.64C68.3 86.76 69.14 86.94 70.04 87.06C75.02 87.9 81.92 89.04 83.42 92.88C85.82 99.12 85.16 107.46 84.62 114.78C84.5 116.28 84.38 117.78 84.32 119.16C83.96 124.74 83.48 129.3 80.9 132.72C77.96 136.62 72.5 138.36 68.06 139.5C60.62 141.3 53.12 142.2 45.56 142.2ZM48.32 85.5C44.6 85.5 41.9 86.04 39.92 87.12C37.64 88.38 35.72 90.78 34.52 93.78C33.38 96.66 32.96 99.9 32.6 103.8C31.82 112.92 31.82 122.16 32.72 131.28C32.96 133.98 33.32 136.74 34.76 138.42C36.44 140.34 39.68 141.24 45.08 141.3H45.56C53 141.3 60.44 140.4 67.7 138.54C71.96 137.46 77.24 135.72 80.06 132.06C82.52 128.88 83 124.44 83.3 118.98C83.36 117.54 83.48 116.1 83.6 114.6C84.2 107.4 84.8 99.18 82.46 93.12C81.14 89.76 74.6 88.68 69.8 87.84C68.9 87.72 68.06 87.54 67.28 87.42C61.82 86.4 56.3 85.8 50.78 85.56C49.88 85.5 49.1 85.5 48.32 85.5Z" fill="#111111"/>
<path d="M145.04 148.92C136.94 148.92 128.9 147.9 121.04 145.92C115.58 144.54 108.68 142.26 104.48 136.68C100.4 131.34 99.9801 124.44 99.6801 119.46C99.6201 118.08 99.5001 116.64 99.3801 115.2C98.7201 107.16 98.0001 98.04 101 90.36C103.88 82.92 112.94 81.36 119.54 80.28C120.38 80.16 121.16 80.04 121.88 79.86C127.7 78.78 133.58 78.12 139.46 77.88C144.44 77.64 149.72 77.82 154.4 80.4C158.3 82.5 161.42 86.28 163.28 91.02C164.9 95.16 165.38 99.48 165.68 103.2C166.52 112.8 166.46 122.46 165.56 132.06C165.2 135.78 164.6 140.1 161.66 143.46C157.46 148.32 150.5 148.92 145.64 148.98L145.04 148.92ZM142.28 85.08C141.44 85.08 140.6 85.14 139.76 85.14C134.18 85.38 128.66 85.98 123.2 87C122.42 87.12 121.58 87.3 120.68 87.42C115.76 88.26 109.04 89.34 107.66 92.94C105.26 99.12 105.92 107.34 106.52 114.6C106.64 116.1 106.76 117.6 106.82 118.98C107.18 124.5 107.66 129 110.18 132.3C113.06 136.08 118.46 137.82 122.78 138.9C130.22 140.76 137.9 141.72 145.52 141.66C151.04 141.6 154.4 140.7 156.14 138.66C157.64 136.86 158.06 134.04 158.3 131.28C159.14 122.1 159.2 112.92 158.42 103.74C158.06 99.78 157.64 96.54 156.5 93.6C155.3 90.48 153.26 88.02 150.86 86.7C148.46 85.38 145.4 85.08 142.28 85.08Z" fill="white"/>
<path d="M145.04 149.4C136.88 149.4 128.78 148.38 120.92 146.4C115.34 145.02 108.44 142.68 104.12 137.04C99.9801 131.64 99.5601 124.68 99.2001 119.58C99.1401 118.26 99.0201 116.82 98.9001 115.38V115.32C98.2401 107.22 97.5201 98.1 100.52 90.3C103.46 82.56 112.7 81.06 119.42 79.98C120.26 79.86 121.04 79.74 121.76 79.56C127.58 78.48 133.46 77.82 139.4 77.58C144.44 77.34 149.84 77.52 154.52 80.1C158.48 82.26 161.72 86.1 163.58 90.96C165.26 95.16 165.68 99.54 166.04 103.26C166.88 112.86 166.82 122.58 165.92 132.18C165.56 136.02 164.9 140.34 161.9 143.82C157.58 148.86 150.5 149.46 145.52 149.52L145.04 149.4ZM142.28 78.3C141.32 78.3 140.42 78.36 139.46 78.36C133.58 78.6 127.7 79.26 121.94 80.34C121.22 80.46 120.44 80.58 119.6 80.76C113.06 81.84 104.12 83.34 101.36 90.54C98.4201 98.16 99.1401 107.22 99.8001 115.2V115.32C99.9201 116.76 100.04 118.14 100.1 119.52C100.4 124.5 100.82 131.28 104.84 136.5C108.98 141.9 115.76 144.18 121.16 145.56C128.96 147.54 137 148.56 145.04 148.5H145.58C150.38 148.5 157.16 147.9 161.3 143.16C164.12 139.86 164.72 135.72 165.08 132C165.98 122.46 165.98 112.8 165.2 103.26C164.9 99.6 164.42 95.34 162.8 91.2C161 86.58 157.94 82.92 154.16 80.82C150.38 78.72 146.36 78.3 142.28 78.3ZM145.04 142.2C137.48 142.2 129.98 141.24 122.66 139.44C118.22 138.3 112.76 136.56 109.82 132.66C107.18 129.24 106.76 124.68 106.4 119.1C106.34 117.66 106.22 116.22 106.1 114.72C105.5 107.4 104.84 99.12 107.3 92.82C108.8 88.98 115.64 87.84 120.68 87C121.58 86.88 122.42 86.7 123.2 86.58C128.66 85.56 134.24 84.9 139.76 84.66C140.72 84.6 141.56 84.6 142.28 84.6C144.74 84.6 148.28 84.78 151.1 86.34C153.56 87.72 155.66 90.24 156.92 93.48C158.06 96.48 158.54 99.78 158.9 103.74C159.68 112.92 159.68 122.16 158.78 131.4C158.48 134.22 158.12 137.16 156.5 139.02C154.64 141.18 151.16 142.14 145.52 142.2H145.04ZM142.28 85.5C141.56 85.5 140.72 85.5 139.76 85.56C134.24 85.8 128.72 86.4 123.26 87.42C122.48 87.54 121.64 87.72 120.74 87.84C115.94 88.62 109.4 89.7 108.08 93.12C105.74 99.18 106.4 107.4 106.94 114.6C107.06 116.1 107.18 117.6 107.24 118.98C107.6 124.44 108.02 128.82 110.48 132.06C113.3 135.72 118.58 137.46 122.84 138.54C130.22 140.4 137.84 141.36 145.52 141.3C150.86 141.24 154.16 140.34 155.78 138.42C157.22 136.74 157.58 133.98 157.82 131.28C158.66 122.16 158.72 112.98 157.94 103.8C157.58 99.84 157.16 96.66 156.02 93.78C154.82 90.72 152.9 88.38 150.62 87.12C148.64 86.04 146 85.5 142.28 85.5ZM139.58 81.96C139.34 81.96 139.16 81.78 139.1 81.48C139.1 81.24 139.28 81.06 139.52 81C139.76 81 140 81.18 140 81.48C140 81.78 139.82 81.96 139.58 81.96Z" fill="#111111"/>
<path d="M87.3202 114.6C85.3402 114.6 83.7202 112.98 83.7202 111C83.7202 110.16 84.0202 109.38 84.5002 108.72C86.8402 105.84 90.2602 104.04 93.9202 103.62C96.8002 103.32 99.7402 103.86 102.32 105.18C104.06 105.3 105.44 106.68 105.62 108.42L105.68 108.96C105.86 110.94 104.42 112.68 102.44 112.92C101.54 113.04 100.58 112.74 99.8602 112.2C98.3602 111.12 96.5602 110.58 94.7002 110.76C92.9002 110.94 91.2202 111.84 90.0802 113.22C89.4202 114.12 88.4002 114.6 87.3202 114.6Z" fill="white"/>
<path d="M87.3198 115.08C85.0998 115.08 83.2998 113.28 83.2998 111C83.2998 110.1 83.5998 109.2 84.1998 108.48C86.6598 105.54 90.1398 103.62 93.9198 103.2C96.8598 102.9 99.8598 103.44 102.5 104.82C104.42 105 105.92 106.56 106.1 108.48L106.16 109.02C106.4 111.24 104.72 113.22 102.5 113.46C101.48 113.58 100.46 113.28 99.6198 112.62C98.2398 111.6 96.4998 111.12 94.7598 111.3C93.0798 111.48 91.5198 112.32 90.4398 113.64C89.7198 114.54 88.5798 115.08 87.3198 115.08ZM95.5398 104.04C95.0598 104.04 94.5198 104.04 94.0398 104.1C90.4998 104.52 87.1998 106.26 84.9198 109.02C83.8398 110.34 84.0198 112.38 85.3998 113.46C86.7798 114.54 88.7598 114.36 89.8398 112.98C91.0998 111.54 92.8398 110.58 94.7598 110.4C96.7398 110.22 98.6598 110.7 100.22 111.9C101.6 112.98 103.58 112.68 104.66 111.3C105.14 110.64 105.38 109.86 105.32 109.08L105.26 108.54C105.14 107.04 103.88 105.84 102.38 105.72C102.32 105.72 102.26 105.72 102.2 105.66C100.1 104.58 97.8198 104.04 95.5398 104.04Z" fill="#111111"/>
</svg>
