<svg width="300" height="300" viewBox="0 0 300 300" fill="none" xmlns="http://www.w3.org/2000/svg">
<path d="M106.26 240.3C107.22 243.3 108.3 246.36 110.1 248.94C111.9 251.52 114.6 253.68 117.78 254.1C120.96 254.52 124.2 253.2 126.6 251.04C129 248.88 130.74 246.12 132.24 243.24C143.28 222.24 144.78 197.7 146.04 174L147.18 152.94C147.3 150.48 147.42 147.9 146.34 145.68C144.18 141.18 138.36 140.04 133.38 139.86C124.14 139.44 114.84 140.04 105.72 141.72C102.06 142.38 96.6604 142.74 93.3604 144.72C90.3004 146.58 91.0804 149.76 91.1404 153C91.6204 171.96 93.9004 190.86 97.9204 209.4C100.14 219.84 102.9 230.16 106.26 240.3Z" fill="white"/>
<path d="M118.92 254.64C118.5 254.64 118.08 254.64 117.66 254.58C114.72 254.16 111.78 252.24 109.68 249.24C107.88 246.66 106.8 243.6 105.78 240.48C102.42 230.28 99.6601 219.96 97.3801 209.46C93.3601 190.92 91.0801 171.96 90.6001 153C90.6001 152.52 90.5401 151.98 90.5401 151.5C90.3601 148.8 90.2401 146.04 93.0601 144.3C95.6401 142.74 99.4201 142.2 102.78 141.72C103.74 141.6 104.7 141.42 105.54 141.3C114.72 139.62 124.02 138.96 133.32 139.44C140.52 139.8 144.9 141.78 146.7 145.5C147.84 147.9 147.66 150.72 147.54 153L146.4 174C145.2 196.5 143.82 221.94 132.54 243.42C131.16 246.06 129.36 249.12 126.84 251.34C124.74 253.38 121.92 254.52 118.92 254.64ZM106.68 240.18C107.7 243.24 108.72 246.24 110.46 248.7C112.44 251.46 115.08 253.32 117.84 253.68C120.66 254.04 123.72 252.96 126.3 250.68C128.76 248.52 130.44 245.58 131.82 243C142.98 221.7 144.36 196.32 145.56 173.94L146.7 152.94C146.82 150.66 146.94 148.08 145.92 145.86C144.24 142.44 140.16 140.58 133.32 140.28C124.08 139.86 114.84 140.52 105.78 142.2C104.94 142.38 103.98 142.5 103.02 142.62C99.7801 143.1 96.0601 143.64 93.6001 145.08C91.1401 146.52 91.3801 148.8 91.5001 151.44C91.5001 151.98 91.5601 152.46 91.5601 153C92.0401 171.96 94.3201 190.8 98.3401 209.28C100.56 219.72 103.38 230.04 106.68 240.18Z" fill="#111111"/>
<path d="M142.68 245.1C141.6 238.8 140.7 231.66 144.6 226.56C147.84 222.3 153.72 220.68 159.06 221.4C164.4 222.12 169.2 224.82 173.64 227.82C191.4 239.76 205.26 256.68 213.54 276.42C214.98 279.78 216.18 283.62 214.98 287.04C213.9 290.04 211.02 292.14 208.02 293.16C205.02 294.18 201.72 294.12 198.48 294.06C185.1 293.76 171.78 292.32 158.64 289.74C154.38 288.9 150.9 288.6 149.46 284.1C147.72 278.7 147.42 272.46 146.46 266.94C145.2 259.68 143.94 252.36 142.68 245.1Z" fill="#855AFF"/>
<path d="M181.98 220.56C188.82 220.98 196.14 221.28 202.14 218.16C207.9 215.16 211.5 209.28 212.58 203.22C213.66 197.16 212.7 190.98 211.08 185.04C207.42 171.54 201.12 158.94 192.42 148.02C196.56 143.64 204.48 144.12 209.58 147.48C214.68 150.84 217.62 156.24 220.2 161.52C228.66 178.74 235.62 197.82 231.24 216.3C229.56 223.44 225.84 230.58 219.18 234.48C210.84 239.34 200.1 238.2 190.38 236.46C182.94 235.14 175.56 233.58 168.24 231.84C164.52 230.94 153.42 229.8 152.04 225.84C148.5 215.34 177.54 220.32 181.98 220.56Z" fill="#855AFF"/>
<path d="M112.98 187.86C113.16 188.52 113.46 189.12 113.94 189.6C114.42 190.08 115.14 190.32 115.8 190.14C116.82 189.78 117.12 188.52 117.12 187.5C117.18 186 116.76 179.76 114.24 180.48C111.72 181.2 112.44 186.18 112.98 187.86Z" fill="#111111"/>
<path d="M126.42 190.02C127.26 189.84 127.68 188.82 127.8 187.98C127.98 186.48 127.62 178.5 124.98 181.26C123.36 182.94 122.82 190.8 126.42 190.02Z" fill="#111111"/>
<path d="M110.64 239.88C111.12 241.74 112.14 243.42 113.64 244.62C115.14 245.82 117.18 246.18 118.98 245.52C120.84 244.74 122.04 242.82 122.4 240.84C122.76 238.86 122.52 236.82 122.22 234.84C120.3 235.56 118.32 236.04 116.28 236.28C114.72 236.4 112.32 235.38 110.94 235.92C109.44 236.46 110.28 238.62 110.64 239.88Z" fill="#111111"/>
<path d="M94.5003 178.02C93.6603 176.52 92.5803 175.2 91.3203 174C90.0603 172.8 88.3203 172.2 86.5803 172.38C84.4203 172.74 82.7403 174.72 82.3203 176.88C82.0203 179.1 82.5603 181.32 83.8203 183.12C86.9403 187.74 92.5803 189.9 97.9803 188.52" fill="white"/>
<path d="M94.8003 189.36C90.3003 189.36 86.0403 187.14 83.5203 183.36C82.2003 181.44 81.6003 179.1 81.9603 176.76C82.4403 174.3 84.3603 172.26 86.5803 171.9C88.4403 171.72 90.3003 172.32 91.6803 173.64C92.9403 174.84 94.0803 176.22 94.9203 177.78C95.0403 177.96 94.9803 178.26 94.8003 178.38C94.6203 178.5 94.3203 178.44 94.2003 178.26C93.3603 176.82 92.3403 175.5 91.1403 174.36C90.0003 173.22 88.3803 172.68 86.8203 172.86C84.9603 173.16 83.3403 174.9 82.9803 177C82.6803 179.1 83.2203 181.2 84.4203 182.94C87.4203 187.38 92.8803 189.42 98.1003 188.1C98.3403 188.04 98.5803 188.16 98.7003 188.34C98.7603 188.58 98.6403 188.82 98.4603 188.94H98.4003C97.0803 189.24 95.9403 189.36 94.8003 189.36Z" fill="#111111"/>
<path d="M144.6 178.02C145.44 176.52 146.52 175.2 147.78 174C149.04 172.8 150.78 172.2 152.52 172.38C154.68 172.74 156.36 174.72 156.78 176.88C157.08 179.1 156.54 181.32 155.28 183.12C152.16 187.74 146.52 189.9 141.12 188.52" fill="white"/>
<path d="M144.3 189.36C143.16 189.36 142.02 189.18 140.94 188.88C140.7 188.82 140.52 188.58 140.58 188.34C140.64 188.1 140.88 187.92 141.12 187.98H141.18C146.4 189.3 151.8 187.2 154.86 182.82C156.06 181.08 156.6 178.98 156.3 176.88C155.94 174.78 154.32 173.04 152.46 172.74C150.84 172.56 149.28 173.1 148.08 174.24C146.88 175.38 145.86 176.7 145.02 178.14C144.9 178.32 144.6 178.38 144.42 178.26C144.24 178.14 144.18 177.84 144.3 177.66C145.2 176.16 146.28 174.72 147.54 173.52C148.92 172.26 150.78 171.6 152.64 171.78C154.86 172.14 156.78 174.18 157.26 176.64C157.56 178.98 157.02 181.32 155.7 183.24C153.12 187.14 148.86 189.36 144.3 189.36Z" fill="#111111"/>
<path d="M91.14 185.58C91.08 185.58 91.02 185.58 90.96 185.52C89.04 183.96 87.48 182.04 86.22 179.88C85.8 179.16 84.9 177.24 86.04 176.1C86.88 175.26 88.32 175.5 89.16 176.16C89.94 176.88 90.48 177.78 90.84 178.8C90.9 178.98 90.84 179.1 90.66 179.16C90.54 179.22 90.36 179.16 90.3 178.98C90 178.08 89.52 177.24 88.8 176.58C88.14 176.04 87.06 175.86 86.46 176.46C85.62 177.36 86.46 179.04 86.7 179.52C87.9 181.62 89.46 183.48 91.32 184.98C91.44 185.1 91.44 185.28 91.38 185.4C91.32 185.52 91.26 185.58 91.14 185.58Z" fill="#111111"/>
<path d="M148.44 185.76C148.32 185.76 148.26 185.7 148.2 185.64C148.14 185.52 148.14 185.34 148.26 185.22C150.24 183.96 151.92 182.22 153 180.12C153.3 179.58 154.08 177.72 153.06 176.64C152.4 176.1 151.5 175.98 150.72 176.34C149.88 176.76 149.16 177.3 148.56 178.02C148.44 178.14 148.26 178.14 148.14 178.02C148.02 177.9 148.02 177.72 148.14 177.6C148.14 177.6 148.14 177.6 148.2 177.54C148.86 176.76 149.7 176.16 150.6 175.74C151.62 175.32 152.76 175.44 153.6 176.16C154.92 177.48 153.96 179.7 153.66 180.3C152.52 182.52 150.84 184.38 148.74 185.7C148.56 185.76 148.56 185.76 148.44 185.76Z" fill="#111111"/>
<path d="M232.08 128.64C231.96 125.34 230.82 121.98 228.36 119.82C225.66 117.42 221.76 116.82 218.28 117.54C214.8 118.26 211.68 120.3 208.98 122.64C209.52 112.32 209.88 101.46 205.08 92.34C202.92 88.26 198.54 84.3 194.16 85.86C191.82 86.7 190.2 88.98 189.54 91.38C188.88 93.78 189 96.3 189.12 98.82C189.6 107.64 189.9 116.52 190.26 125.34C189.9 125.28 189.48 125.16 189.12 125.1C181.5 124.08 177.48 134.34 179.16 140.46C180.6 145.74 185.1 149.58 189.6 152.58C193.02 154.86 196.8 156.96 200.94 157.2C202.92 157.32 204.9 156.96 206.7 156.06C212.82 157.86 219.96 156.54 224.34 151.92C227.82 148.32 229.32 143.22 230.58 138.36C231.48 135.18 232.2 131.94 232.08 128.64Z" fill="white"/>
<path d="M201.66 157.68C201.42 157.68 201.18 157.68 200.94 157.68C196.56 157.38 192.66 155.16 189.36 153C185.52 150.48 180.3 146.4 178.68 140.64C177.54 136.5 178.86 130.92 181.74 127.62C183.78 125.34 186.3 124.32 189.12 124.68C189.3 124.68 189.54 124.74 189.72 124.8C189.6 122.34 189.54 119.82 189.42 117.36C189.18 111.3 188.94 105 188.58 98.88C188.46 96.36 188.34 93.78 189 91.32C189.78 88.5 191.64 86.28 193.86 85.5C198.48 83.88 203.04 87.84 205.32 92.22C210.12 101.4 209.76 112.56 209.28 121.74C212.22 119.34 215.04 117.84 217.98 117.24C221.94 116.4 225.84 117.3 228.48 119.64C230.82 121.68 232.2 125.04 232.38 128.82C232.5 132.12 231.78 135.36 230.94 138.66C229.68 143.58 228.18 148.74 224.58 152.4C220.32 156.84 213.12 158.58 206.64 156.72C205.2 157.32 203.46 157.68 201.66 157.68ZM188.04 125.46C185.88 125.52 183.84 126.48 182.52 128.16C179.82 131.22 178.56 136.5 179.64 140.34C181.14 145.86 186.24 149.76 189.9 152.22C193.08 154.32 196.86 156.48 201 156.78C202.92 156.9 204.84 156.54 206.58 155.7C206.7 155.64 206.82 155.64 206.88 155.7C213.06 157.56 220.02 155.94 224.1 151.68C227.52 148.14 229.02 143.16 230.22 138.3C231.06 135.06 231.78 131.94 231.66 128.7C231.54 125.16 230.22 122.1 228.06 120.18C225.66 118.08 222 117.24 218.34 118.02C215.28 118.68 212.34 120.3 209.22 123C209.1 123.12 208.92 123.12 208.74 123.06C208.56 123 208.5 122.82 208.5 122.64C208.98 113.4 209.52 101.82 204.66 92.52C201.78 87 197.28 85.2 194.34 86.22C192.36 86.94 190.74 88.86 190.02 91.44C189.36 93.78 189.48 96.3 189.6 98.7C189.9 104.88 190.2 111.12 190.44 117.18C190.56 119.88 190.68 122.52 190.74 125.22C190.74 125.34 190.68 125.52 190.56 125.58C190.44 125.64 190.32 125.7 190.2 125.64C189.78 125.52 189.42 125.46 189.06 125.4C188.7 125.46 188.4 125.46 188.04 125.46Z" fill="#111111"/>
<path d="M212.16 154.38C212.04 154.38 211.98 154.32 211.92 154.26C211.8 154.14 211.86 153.96 211.98 153.84C213.42 152.82 214.26 150.78 214.08 148.62C213.9 146.46 212.94 144.6 211.98 142.98C207.78 135.84 201.48 130.14 193.92 126.72C193.74 126.66 193.68 126.48 193.74 126.3C193.8 126.18 193.98 126.06 194.16 126.18C201.84 129.66 208.26 135.42 212.52 142.68C213.42 144.24 214.5 146.34 214.68 148.56C214.86 150.96 213.96 153.12 212.28 154.32C212.28 154.38 212.22 154.38 212.16 154.38Z" fill="#111111"/>
<path d="M204 131.94C203.94 131.94 203.94 131.94 203.88 131.94C203.7 131.88 203.64 131.7 203.76 131.52C205.86 127.08 209.4 123.54 213.78 121.44C213.9 121.38 214.08 121.44 214.2 121.56C214.26 121.68 214.2 121.86 214.08 121.98C209.82 124.02 206.34 127.5 204.36 131.82C204.24 131.88 204.12 131.94 204 131.94Z" fill="#111111"/>
<path d="M183.3 235.26C183.24 235.26 183.24 235.26 183.18 235.26C178.62 233.7 173.7 233.46 169.02 234.54C168.84 234.6 168.66 234.48 168.66 234.3C168.6 234.12 168.72 233.94 168.9 233.94C173.7 232.8 178.74 233.1 183.36 234.66C183.54 234.66 183.66 234.84 183.6 235.02C183.6 235.2 183.42 235.32 183.3 235.26Z" fill="white"/>
<path d="M231.54 42.84C231.54 42.42 231.54 42 231.48 41.58L233.46 40.32C233.34 38.28 232.8 36.36 231.78 34.62C230.94 34.62 230.1 34.62 229.26 34.74V34.68C228.48 33.3 227.52 32.04 226.38 30.96L226.86 28.98C225.36 27.6 223.62 26.58 221.7 26.04C221.04 26.64 220.44 27.3 219.9 27.96C217.86 27.78 215.88 27.96 213.9 28.44L212.28 26.52C210.3 26.94 208.44 27.78 206.88 29.04C206.94 29.34 207.18 31.26 207.42 31.62C206.4 32.58 205.5 33.72 204.78 34.92L202.68 34.8C201.54 36.48 200.88 38.4 200.58 40.38C200.88 40.56 202.44 41.82 202.86 41.88C202.86 43.32 203.1 44.76 203.58 46.14C203.1 46.68 202.32 47.76 202.14 47.94C202.98 49.8 204.18 51.42 205.74 52.68L207.24 52.08C207.78 52.62 208.38 53.1 208.98 53.52C210.3 54.48 211.8 55.14 213.36 55.62C213.42 56.34 213.66 57.36 213.66 57.54C215.58 58.2 217.62 58.38 219.6 58.14C219.9 57.42 220.2 56.64 220.5 55.92C221.22 55.8 222 55.56 222.72 55.32C224.28 54.78 225.72 53.94 226.98 52.86C227.64 53.16 228.72 53.52 228.96 53.58C230.46 52.26 231.66 50.58 232.44 48.72L230.94 46.86C231.36 45.6 231.54 44.22 231.54 42.84ZM213.9 28.44L213.6 28.5C213.66 28.44 213.78 28.44 213.9 28.44ZM221.28 48.24C217.8 49.98 213.6 48.6 211.86 45.12C210.9 43.26 210.84 41.04 211.68 39.06C212.82 36.48 216.3 34.2 219.18 34.62C222.06 35.04 224.76 38.22 225.12 40.98C225.42 43.98 223.92 46.86 221.28 48.24Z" fill="#111111"/>
<path d="M253.32 76.8C253.32 76.26 253.32 75.72 253.26 75.18L255.72 73.62C255.6 71.1 254.88 68.7 253.62 66.48C252.6 66.48 251.52 66.48 250.5 66.6V66.54C249.54 64.86 248.34 63.3 246.9 61.92C247.08 61.08 247.32 60.3 247.5 59.46C245.7 57.78 243.48 56.52 241.08 55.8C240.84 56.1 239.1 57.6 238.86 58.2C236.34 58.02 233.82 58.2 231.42 58.8C230.76 58.02 230.04 57.24 229.38 56.4C226.92 56.88 224.64 57.96 222.66 59.52C222.72 59.88 223.02 62.28 223.32 62.76C222.06 63.96 220.92 65.34 220.08 66.9L217.5 66.72C216.12 68.82 215.22 71.22 214.92 73.74C215.28 73.98 217.2 75.54 217.74 75.6C217.74 77.4 218.04 79.2 218.58 80.94C217.98 81.6 217.02 82.92 216.84 83.16C217.86 85.44 219.36 87.48 221.34 89.1L223.2 88.38C223.86 89.04 224.58 89.64 225.36 90.18C227.04 91.32 228.84 92.22 230.82 92.76C230.94 93.66 231.18 94.92 231.24 95.16C233.58 96 236.16 96.24 238.62 95.94C238.98 94.98 239.34 94.08 239.7 93.18C242.64 92.64 245.4 91.32 247.74 89.4C248.58 89.76 249.9 90.18 250.2 90.3C252.06 88.68 253.56 86.58 254.46 84.24L252.6 81.9C253.08 80.28 253.32 78.54 253.32 76.8ZM231.36 58.92L230.94 59.04C231.06 58.98 231.18 58.92 231.36 58.92ZM240.54 83.52C236.22 85.74 230.94 84 228.78 79.68C227.58 77.34 227.52 74.58 228.6 72.18C230.04 69 234.3 66.18 237.9 66.66C241.5 67.14 244.8 71.16 245.28 74.58C245.64 78.24 243.78 81.78 240.54 83.52Z" fill="#111111"/>
<path d="M61.8601 256.02C61.5601 256.02 61.2001 255.9 61.0201 255.66C59.8801 254.46 58.7401 253.32 57.6601 252.18C57.2401 251.7 57.3001 250.92 57.7801 250.5C58.2601 250.08 58.9801 250.14 59.4001 250.56C60.4801 251.7 61.5601 252.84 62.7001 254.04C63.1801 254.52 63.1801 255.3 62.7001 255.72C62.4601 255.9 62.1601 256.02 61.8601 256.02ZM55.3201 249C54.9601 249 54.6601 248.88 54.4201 248.58C53.3401 247.38 52.2601 246.12 51.2401 244.92C50.8201 244.44 50.8801 243.66 51.3601 243.24C51.8401 242.82 52.6201 242.88 53.0401 243.36C54.0601 244.56 55.0801 245.76 56.1601 246.96C56.5801 247.44 56.5801 248.22 56.0401 248.64C55.9201 248.88 55.6201 249 55.3201 249ZM49.1401 241.62C48.7801 241.62 48.4201 241.44 48.1801 241.14C47.1601 239.88 46.2001 238.56 45.2401 237.3C44.8201 236.76 44.9401 236.04 45.4801 235.62C46.0201 235.2 46.7401 235.32 47.1601 235.86C48.0601 237.12 49.0801 238.38 50.0401 239.64C50.4601 240.18 50.3401 240.9 49.8601 241.32C49.6801 241.56 49.4401 241.62 49.1401 241.62ZM43.4401 233.88C43.0201 233.88 42.6601 233.7 42.4201 233.34C41.5201 231.96 40.6201 230.64 39.7801 229.26C39.4801 228.66 39.6601 227.94 40.2601 227.64C40.8001 227.34 41.4601 227.52 41.8201 228C42.6601 229.32 43.5001 230.64 44.4001 231.96C44.7601 232.5 44.6401 233.28 44.1001 233.64C43.9201 233.82 43.6801 233.88 43.4401 233.88ZM38.4001 225.72C37.9801 225.72 37.5601 225.48 37.3201 225.12C36.5401 223.68 35.7601 222.24 35.0401 220.8C34.7401 220.2 34.9201 219.48 35.5201 219.18C36.1201 218.88 36.8401 219.06 37.1401 219.66C37.1401 219.72 37.2001 219.72 37.2001 219.78C37.9201 221.16 38.6401 222.6 39.4201 223.98C39.7801 224.58 39.5401 225.3 39.0001 225.6C38.8201 225.72 38.6401 225.78 38.4001 225.72ZM34.2001 217.14C33.7201 217.14 33.3001 216.84 33.1201 216.42C32.4601 214.92 31.8601 213.42 31.3201 211.92C31.0801 211.32 31.4401 210.6 32.0401 210.36C32.6401 210.12 33.3601 210.48 33.6001 211.08C34.1401 212.58 34.7401 214.02 35.3401 215.46C35.5801 216.06 35.3401 216.78 34.7401 217.02C34.5601 217.08 34.3801 217.14 34.2001 217.14ZM30.9001 208.14C30.3601 208.14 29.8801 207.78 29.7601 207.3C29.2801 205.74 28.8601 204.18 28.5001 202.56C28.3801 201.9 28.7401 201.24 29.4001 201.12C30.0601 201 30.7201 201.36 30.8401 202.02C31.2001 203.52 31.6201 205.08 32.0401 206.58C32.2201 207.24 31.8601 207.9 31.2601 208.08C31.1401 208.08 31.0201 208.14 30.9001 208.14ZM28.7401 198.78C28.1401 198.78 27.6601 198.36 27.5401 197.76C27.3001 196.14 27.0601 194.52 26.9401 192.9C26.8801 192.24 27.3601 191.64 28.0201 191.58C28.6801 191.52 29.2801 192 29.3401 192.66C29.4601 194.22 29.7001 195.78 29.9401 197.34C30.0601 198 29.5801 198.6 28.9801 198.72C28.8601 198.78 28.8001 198.78 28.7401 198.78ZM27.8401 189.24C27.1801 189.24 26.6401 188.7 26.6401 188.04C26.6401 187.56 26.6401 187.08 26.6401 186.6C26.6401 185.46 26.6401 184.26 26.7601 183.18C26.8201 182.52 27.3601 181.98 28.0201 182.04C28.6801 182.1 29.2201 182.64 29.1601 183.3C29.1001 184.38 29.0401 185.52 29.0401 186.6C29.0401 187.08 29.0401 187.5 29.0401 187.98C29.1001 188.64 28.5601 189.18 27.8401 189.24C27.9001 189.24 27.9001 189.18 27.8401 189.24ZM28.3801 179.64H28.2001C27.5401 179.58 27.0601 178.92 27.1801 178.32C27.4201 176.7 27.6601 175.08 28.0201 173.52L29.2201 173.76L30.3601 174.06C30.0001 175.56 29.7601 177.12 29.5201 178.68C29.5201 179.22 28.9801 179.64 28.3801 179.64ZM30.4801 170.28C30.3601 170.28 30.2401 170.28 30.1201 170.22C29.4601 170.04 29.1601 169.32 29.3401 168.72C29.8201 167.16 30.4201 165.6 31.0801 164.1C31.3201 163.5 32.0401 163.2 32.6401 163.44C33.2401 163.68 33.5401 164.4 33.3001 165C32.7001 166.44 32.1001 167.94 31.6201 169.38C31.4401 169.92 31.0201 170.28 30.4801 170.28ZM34.2601 161.46C34.0801 161.46 33.8401 161.4 33.6601 161.34C33.0601 161.04 32.8801 160.32 33.1801 159.72C33.9601 158.28 34.8001 156.84 35.7001 155.52C36.0601 154.98 36.8401 154.86 37.3801 155.22C37.9201 155.58 38.0401 156.3 37.6801 156.84C36.8401 158.1 36.0001 159.48 35.2801 160.86C35.1001 161.22 34.6801 161.46 34.2601 161.46ZM39.6001 153.54C38.9401 153.54 38.4001 153 38.4001 152.34C38.4001 152.04 38.5201 151.8 38.7001 151.56C39.7201 150.3 40.8601 149.1 42.0601 147.9C42.5401 147.42 43.3201 147.42 43.7401 147.9C44.2201 148.38 44.2201 149.16 43.7401 149.58C42.6601 150.66 41.5801 151.86 40.6201 153.06C40.3201 153.36 39.9601 153.54 39.6001 153.54ZM46.3801 146.76C46.0201 146.76 45.6601 146.58 45.4201 146.28C45.0001 145.74 45.0601 145.02 45.6001 144.6C46.8601 143.58 48.2401 142.62 49.6201 141.72C50.1601 141.36 50.9401 141.54 51.3001 142.08C51.6601 142.62 51.4801 143.4 50.9401 143.76C49.6201 144.6 48.3601 145.5 47.1601 146.46C46.9801 146.7 46.6801 146.76 46.3801 146.76ZM54.5401 141.66C53.8801 141.66 53.3401 141.12 53.3401 140.46C53.3401 139.98 53.5801 139.56 54.0001 139.38C54.7201 139.02 55.4401 138.72 56.1601 138.42C56.7601 138.12 57.4801 138.42 57.7801 139.02C58.0801 139.62 57.7801 140.34 57.1801 140.64C57.1201 140.64 57.1201 140.64 57.0601 140.7C56.4001 141 55.6801 141.3 55.0201 141.6C54.9001 141.66 54.7201 141.66 54.5401 141.66Z" fill="#111111"/>
<path d="M244.32 43.14C243.66 43.14 243.12 42.6 243.12 41.94C243.12 41.52 243.36 41.1 243.72 40.86C245.1 40.08 246.42 39.24 247.74 38.4C248.28 38.04 249.06 38.16 249.42 38.7C249.78 39.24 249.66 40.02 249.12 40.38C247.74 41.28 246.36 42.18 244.92 42.96C244.74 43.08 244.56 43.14 244.32 43.14ZM252.3 37.8C251.64 37.8 251.1 37.26 251.1 36.6C251.1 36.24 251.28 35.88 251.52 35.64C252.72 34.68 253.92 33.6 255.06 32.52C255.54 32.04 256.32 32.1 256.74 32.58C257.22 33.06 257.16 33.84 256.68 34.26C255.48 35.4 254.28 36.48 252.96 37.5C252.84 37.68 252.54 37.8 252.3 37.8ZM259.26 31.2C258.96 31.2 258.66 31.08 258.48 30.9C258 30.48 257.94 29.7 258.42 29.22C259.44 28.08 260.46 26.82 261.42 25.62C261.84 25.08 262.56 25.02 263.1 25.38C263.64 25.8 263.7 26.52 263.34 27.06C262.38 28.38 261.3 29.64 260.22 30.84C259.92 31.08 259.56 31.2 259.26 31.2ZM265.08 23.58C264.84 23.58 264.6 23.52 264.42 23.4C263.88 23.04 263.7 22.32 264.06 21.72C264.9 20.4 265.74 19.02 266.46 17.64C266.76 17.04 267.48 16.8 268.08 17.1C268.68 17.4 268.92 18.12 268.62 18.72C268.62 18.78 268.56 18.78 268.56 18.84C267.78 20.28 266.94 21.72 266.1 23.04C265.92 23.4 265.5 23.58 265.08 23.58ZM269.64 15.12C269.46 15.12 269.34 15.06 269.16 15C268.56 14.7 268.32 14.04 268.56 13.44C268.8 12.9 268.98 12.42 269.22 11.88C269.46 11.28 270.18 10.98 270.78 11.22C271.38 11.46 271.68 12.18 271.44 12.78C271.2 13.32 271.02 13.86 270.78 14.4C270.54 14.88 270.12 15.12 269.64 15.12Z" fill="#111111"/>
<path d="M49.0205 264.54C61.5005 268.2 75.1205 271.56 87.6005 275.22C81.2405 269.4 83.3405 257.04 75.6005 253.26C73.1405 252.06 69.7805 244.62 71.4005 242.34C72.9005 240.24 63.2405 241.62 52.2605 245.4C51.2405 245.82 48.6605 264.42 49.0205 264.54Z" fill="#855AFF"/>
<path d="M53.4604 245.04L61.2604 242.76C70.0804 253.26 78.7204 264.78 87.5404 275.28C78.0004 267.84 68.8804 259.26 59.6404 251.52C57.7804 249.96 54.9604 246.42 52.6804 245.64C50.6404 244.92 47.7004 246.54 45.6604 247.2C44.3404 247.62 37.2004 250.92 35.9404 250.26C52.6204 259.56 69.9004 267.96 87.5404 275.28L76.3204 237.78C76.2604 237.66 63.6004 241.62 52.3804 245.1" fill="white"/>
<path d="M87.6001 275.7C87.5401 275.7 87.4801 275.7 87.4201 275.64C69.7801 268.32 52.5001 259.92 35.8201 250.62C35.5801 250.5 35.5201 250.26 35.6401 250.02C35.7601 249.78 36.0001 249.72 36.2401 249.84C37.0201 250.26 41.8801 248.28 43.7401 247.5C44.5801 247.14 45.3001 246.84 45.6601 246.72C46.1401 246.6 46.6801 246.36 47.2801 246.12C48.8401 245.52 50.5201 244.86 52.0801 244.98C52.0801 244.8 52.2001 244.68 52.3801 244.62C57.9601 242.88 63.9601 241.02 68.5201 239.58C70.8001 238.86 72.7201 238.26 74.1001 237.84C76.6801 237.06 76.6801 237.06 76.8601 237.54L88.1401 275.04V275.1V275.22C88.1401 275.28 88.0801 275.4 88.0201 275.46L87.9601 275.52C87.9001 275.58 87.7801 275.64 87.7201 275.64L87.6001 275.7ZM37.6201 250.62C52.9201 259.08 68.6401 266.76 84.7201 273.54C79.8001 269.58 74.9401 265.32 70.2001 261.18C66.6601 258.06 62.9401 254.82 59.3401 251.82C58.7401 251.34 58.0201 250.62 57.3001 249.9C55.7401 248.34 54.0001 246.6 52.5601 246.06C51.1201 245.52 49.2001 246.36 47.5201 247.02C46.9201 247.26 46.3801 247.44 45.9001 247.62C45.6001 247.74 44.8801 247.98 44.0401 248.34C41.9401 249.24 39.8401 250.02 37.6201 250.62ZM61.8001 242.64C66.1801 247.8 70.5601 253.38 74.8201 258.72C78.6601 263.58 82.6201 268.56 86.5801 273.3L76.0801 238.32C74.4001 238.74 67.8001 240.78 61.8001 242.64ZM53.5201 245.52C54.9601 246.3 56.5801 247.86 57.9601 249.24C58.6801 249.96 59.3401 250.68 59.9401 251.1C63.6001 254.16 67.2001 257.34 70.8001 260.46C75.2401 264.36 79.8001 268.32 84.3601 272.1C80.8801 267.9 77.4001 263.52 74.0401 259.26C69.8401 253.92 65.4601 248.4 61.0801 243.24L53.5201 245.52Z" fill="#111111"/>
<path d="M79.7401 96.06C80.1601 79.86 88.6201 63.18 103.26 56.22C108.24 53.88 113.64 52.68 119.04 51.54C123.18 50.7 127.5 49.8 131.7 50.4C137.52 51.18 142.68 54.66 146.52 59.1C150.36 63.54 152.94 68.88 155.16 74.28C159.96 86.16 163.2 99 161.76 111.66C160.32 124.32 153.48 136.92 142.26 143.04C135.24 146.82 127.02 147.9 119.1 147.48C112.56 147.12 105.36 146.04 99.1201 144C94.5601 142.5 93.0001 139.32 90.7801 135.3C84.0601 123.36 79.3801 109.92 79.7401 96.06Z" fill="#855AFF"/>
<path d="M47.9999 124.68C46.8599 125.22 45.6599 125.76 44.3999 125.64C43.1399 125.52 41.7599 124.5 41.5799 123.18C41.3399 121.32 43.3199 120.24 44.9399 119.64C47.2799 118.8 59.9999 112.92 60.8399 115.74C61.7399 118.8 50.1599 123.66 47.9999 124.68Z" fill="#855AFF"/>
<path d="M45.1199 81.3C44.0399 80.88 42.9599 80.58 41.7599 80.4C40.5599 80.28 39.4199 80.58 38.4599 81.3C37.0799 82.56 37.6199 84.66 39.1199 85.74C40.6199 86.82 42.6599 87.12 44.6399 87.3C48.6599 87.66 53.4599 88.14 57.4199 87.3C57.4199 84.3 47.8199 82.26 45.1199 81.3Z" fill="#855AFF"/>
<path d="M73.8597 21.9C71.5797 21.36 70.1997 22.44 70.2597 23.88C70.3197 25.32 71.4597 26.94 72.5397 28.56C74.1597 30.9 81.2997 43.32 83.3997 37.98C84.7197 34.62 77.3397 25.74 73.8597 21.9Z" fill="#855AFF"/>
<path d="M196.38 67.2C197.64 67.02 198.9 66.78 199.92 65.94C200.94 65.1 201.48 63.54 200.82 62.34C199.92 60.66 197.7 60.84 196.02 61.32C193.62 61.98 179.82 64.32 180.72 67.08C181.74 70.14 193.98 67.62 196.38 67.2Z" fill="#855AFF"/>
<path d="M173.58 32.9399C174.3 32.0399 175.14 31.2599 176.1 30.5999C177.06 29.9399 178.26 29.6399 179.46 29.8799C181.26 30.3599 181.8 32.4599 180.96 34.1399C180.12 35.8199 178.44 37.0199 176.76 38.0999C173.4 40.3199 169.38 42.9599 165.42 44.0999C164.1 41.3999 171.66 35.0999 173.58 32.9399Z" fill="#855AFF"/>
<path d="M147.48 14.22C149.7 13.5 151.2 14.46 151.26 15.9C151.32 17.34 150.3 19.08 149.34 20.76C147.9 23.22 141.84 36.18 139.26 31.08C137.64 27.84 144.3 18.36 147.48 14.22Z" fill="#855AFF"/>
<path d="M88.0198 162.12C88.2598 164.22 88.6198 166.44 90.0598 167.94C91.4998 169.44 93.8398 169.98 95.9998 169.68C98.1598 169.38 100.14 168.54 102.12 167.82C113.76 163.5 126.48 162.66 138.6 165.42C141 165.96 143.52 166.62 145.8 165.84C150.12 164.28 151.02 158.7 151.2 154.14C151.44 149.04 151.44 143.34 148.02 139.56C144.84 136.08 139.68 135.3 134.94 135.18C127.2 135 119.46 135.96 111.78 136.92L98.5798 138.6C95.9398 138.96 88.9198 138.48 87.1798 140.82C85.8598 142.62 86.9998 147.6 87.0598 149.7C87.2398 153.78 87.5398 157.98 88.0198 162.12Z" fill="#111111"/>
<path d="M127.26 152.04C121.86 152.04 116.46 151.5 111.3 151.02C108.66 150.78 106.14 150.54 103.62 150.36C92.9399 149.58 85.6199 147.36 79.6199 138.3C74.9399 131.28 71.6399 123.42 69.8999 115.14C65.8199 95.5799 69.1799 75.8399 79.1399 60.9599C90.1199 44.4599 109.08 34.7999 127.38 36.2999C146.82 37.9199 164.7 52.2599 171.9 71.9399C178.44 89.7599 176.16 111.36 165.84 129.6C161.28 137.7 156.18 143.34 150.18 146.82C143.22 150.9 135.3 152.04 127.26 152.04ZM72.8999 114.54C74.5799 122.46 77.6999 129.96 82.1399 136.68C87.4799 144.78 93.8999 146.7 103.86 147.42C106.38 147.6 108.96 147.84 111.6 148.08C124.5 149.34 137.82 150.66 148.68 144.24C154.14 141 158.94 135.78 163.2 128.16C173.1 110.64 175.26 90.0599 169.02 73.0199C162.24 54.4199 145.38 40.8599 127.08 39.3599C109.86 37.9199 91.9799 47.0399 81.5399 62.6999C72.1199 76.8599 68.9399 95.7599 72.8999 114.54Z" fill="#111111"/>
<path d="M123.36 145.44C122.82 145.44 122.28 145.14 122.04 144.66C117.42 135.84 116.76 125.1 119.94 115.62C118.74 115.68 117.54 115.62 116.34 115.38L116.1 115.32C117.84 125.28 115.26 135.66 113.1 144.24C112.92 145.02 112.14 145.56 111.3 145.38C110.52 145.2 109.98 144.42 110.16 143.58V143.52C112.32 134.76 115.02 124.14 112.86 114.42C109.32 113.04 106.26 110.64 104.1 107.52C103.8 107.04 103.74 106.44 104.04 105.96C104.64 104.94 105.6 104.22 106.74 103.92C108.18 103.56 109.68 103.74 110.94 104.52C112.98 105.78 113.94 107.94 114.6 109.68C114.9 110.46 115.14 111.24 115.38 112.08C115.86 112.2 116.34 112.32 116.82 112.38C118.26 112.62 119.7 112.62 121.14 112.44C122.1 110.28 123.24 108.18 124.62 106.26C125.1 105.6 126.78 103.5 129 103.08C129.96 102.9 130.98 103.14 131.76 103.74C133.2 104.88 133.74 106.86 133.02 108.6C132.48 109.92 131.52 111.06 130.38 111.84C128.28 113.46 125.82 114.54 123.24 115.14C119.76 124.14 120.18 134.64 124.68 143.22C125.04 143.94 124.8 144.84 124.02 145.26C123.9 145.38 123.66 145.44 123.36 145.44ZM129.72 106.08C129.66 106.08 129.6 106.08 129.6 106.08C128.88 106.2 127.86 106.98 127.14 108C126.36 109.14 125.64 110.28 124.98 111.48C126.3 111 127.5 110.28 128.64 109.44C129.36 108.96 129.96 108.3 130.32 107.52C130.5 107.04 130.44 106.5 130.08 106.14C129.96 106.14 129.84 106.08 129.72 106.08ZM107.4 106.86C108.6 108.36 110.1 109.62 111.78 110.58C111.3 109.32 110.64 107.82 109.44 107.1C108.9 106.74 108.18 106.68 107.58 106.8L107.4 106.86Z" fill="#111111"/>
<path d="M51.2401 52.56C50.1601 51.9 49.0801 51.18 48.5401 50.04C48.0001 48.9 48.0601 47.22 49.0801 46.32C50.5201 45.12 52.5001 46.2 53.8801 47.28C55.8601 48.84 67.6201 56.4 65.7001 58.62C63.6001 61.02 53.2801 53.88 51.2401 52.56Z" fill="#855AFF"/>
<path d="M107.88 15.6C107.46 14.52 107.16 13.38 107.1 12.24C106.98 11.04 107.34 9.89998 108.06 8.99998C109.32 7.61998 111.42 8.21998 112.5 9.71998C113.58 11.22 113.76 13.32 113.94 15.3C114.24 19.32 114.6 24.12 113.64 28.08C110.64 27.96 108.84 18.36 107.88 15.6Z" fill="#855AFF"/>
<path d="M93.5397 145.92C93.4197 145.92 93.2997 145.8 93.2397 145.68C93.1797 145.5 93.2997 145.38 93.4797 145.32C107.1 142.56 121.02 141.66 134.82 142.68C135 142.68 135.12 142.86 135.12 142.98C135.12 143.16 135 143.28 134.82 143.28C121.02 142.26 107.16 143.16 93.5397 145.92Z" fill="white"/>
<path d="M93.18 152.4C93 152.4 92.88 152.28 92.82 152.16C92.76 152.04 92.94 151.86 93.06 151.8C101.28 150.06 109.62 149.22 118.02 149.1C118.2 149.1 118.32 149.22 118.32 149.4C118.32 149.58 118.2 149.7 118.02 149.7C109.68 149.76 101.34 150.66 93.18 152.4Z" fill="white"/>
<path d="M93.9601 160.56C93.7801 160.56 93.6601 160.5 93.6001 160.32C93.6001 160.14 93.6601 160.02 93.8401 159.96C108.24 155.52 123.18 153.24 138.3 153.18C138.48 153.18 138.6 153.3 138.6 153.48C138.6 153.66 138.48 153.78 138.3 153.78C123.3 153.78 108.36 156.06 94.0201 160.5L93.9601 160.56Z" fill="white"/>
</svg>
