<svg width="80" height="81" viewBox="0 0 80 81" fill="none" xmlns="http://www.w3.org/2000/svg">
<path d="M40.0001 42.9664C29.4928 42.9664 20.9412 34.4147 20.9412 23.9074C20.9412 13.4002 29.4928 4.84851 40.0001 4.84851C50.5074 4.84851 59.059 13.4002 59.059 23.9074C59.059 34.4147 50.5074 42.9664 40.0001 42.9664ZM40.0001 9.8204C32.2439 9.8204 25.9131 16.1513 25.9131 23.9074C25.9131 31.6636 32.2439 37.9945 40.0001 37.9945C47.7562 37.9945 54.0871 31.6636 54.0871 23.9074C54.0871 16.1513 47.7562 9.8204 40.0001 9.8204Z" fill="#292D32"/>
<path d="M68.4729 76.1123C67.1139 76.1123 65.987 74.9853 65.987 73.6263C65.987 62.191 54.3196 52.9101 40.0005 52.9101C25.6815 52.9101 14.0141 62.191 14.0141 73.6263C14.0141 74.9853 12.8872 76.1123 11.5282 76.1123C10.1692 76.1123 9.04224 74.9853 9.04224 73.6263C9.04224 59.473 22.9304 47.9382 40.0005 47.9382C57.0707 47.9382 70.9589 59.473 70.9589 73.6263C70.9589 74.9853 69.8319 76.1123 68.4729 76.1123Z" fill="#292D32"/>
</svg>
